<svg version="1.2" baseProfile="tiny" xmlns="http://www.w3.org/2000/svg" width="2100" height="595.28" viewBox="0 0 2100 595.28"><g fill="#FFD4D6"><path d="M1589.64 168.417c-22.906 4.207-23.408 25.738-23.989 50.669-.216 9.261-.46 19.757-1.821 30.421-.047.367-.095.705-.145 1.016-6.587-9.291-18.753-39.366-27.15-60.128-10.319-25.512-20.066-49.608-27.699-61.564-3.025-4.741-6.396-6.599-10.019-5.52-8.911 2.653-9.692 20.789-8.946 91.119.434 40.842.923 86.891-4.221 102.762-2.402-3.816-6.97-13.525-14.67-38.2-7.225-23.153-15.358-53.312-23.224-82.477-13.477-49.97-26.205-97.168-35.445-114.754-1.784-3.397-5.965-11.351-12.402-9.663-8.862 2.326-9.574 18.632-7.704 82.203.869 29.562 1.769 60.129-.894 72.121-.922 4.15-1.8 6.143-2.326 7.052-1.833-1.348-4.927-5.221-7.074-7.909-6.557-8.208-13.991-17.513-23.737-15.721l-109.332 20.081c-18.158 3.335-31.484 14.602-38.837 32.726-4.682-9.552-11.98-30.286-17.167-45.022-5.955-16.918-12.113-34.413-16.884-44.446-1.03-2.169-3.777-7.927-8.946-6.614-5.529 1.408-5.827 8.931-5.661 21.155.133 9.753.863 23.084 1.637 37.198 1.595 29.078 3.579 65.265.793 82.698-.096.6-.191 1.145-.286 1.641-4.475-9.404-10.921-31.518-15.072-45.76-4.106-14.088-7.984-27.395-11.166-35.129-1.58-3.84-4.235-10.274-9.691-9.9-5.419.362-6.912 6.05-9.172 14.66-2.399 9.138-6.025 22.948-13.375 24.298L990.43 278.475c-50.114 9.206-56.342 8.236-66.636-10.375-3.049-5.513-6.631-6.137-9.101-5.692-8.256 1.492-11.549 15.463-18.587 62.739-1.97 13.232-3.854 25.889-5.722 34.113-8.018-14.785-23.765-59.404-35.708-93.247-15.229-43.152-30.977-87.774-43.202-112.87-1.791-3.677-5.515-11.324-11.644-9.558-5.212 1.505-6.273 7.963-6.407 19.354-.1 8.455.454 20.353 1.692 36.374 2.285 29.571 6.636 69.316 10.844 107.751 7.078 64.652 15.073 137.678 11.975 154.611-2.49-3.068-7.297-10.73-15.863-29.824-8.269-18.436-17.883-42.586-27.179-65.941-16.284-40.908-31.664-79.548-41.835-93.753-3.644-5.089-8.601-10.747-14.665-9.314-7.662 1.812-9.362 12.566-11.937 28.844-2.677 16.927-6.343 40.111-17.736 42.203l-99.87 18.342c-3.138.578-5.853 1.107-8.224 1.568-6.912 1.35-11.083 2.16-13.192 1.619-1.753-.453-3.682-2.406-7.876-6.779-.728-.76-1.512-1.576-2.363-2.455-4.433-4.576-8.355-4.514-10.866-3.656-9.167 3.133-11.49 20.477-15.478 56.27-.185 1.658-.371 3.328-.56 5.008-10.092-22.402-17.274-41.465-25.738-64.473-2.568-6.982-6.03-14.127-12.227-14.172-.022-.002-.044-.002-.067-.002-7.193 0-10.546 8.711-15.613 21.873-4.511 11.721-10.69 27.773-18.15 29.143l-108.28 19.887c-38.2 7.018-52.879 32.012-60.765 45.439-1.394 2.373-3.047 5.188-4.217 6.691-.091-.113-.189-.24-.295-.379-4.505-5.992-12.857-22.291-20.935-38.055-10.35-20.197-20.125-39.273-26.098-46.027a4.997 4.997 0 0 0-8.443 1.603c-6.821 18.74-6.589 51.828-6.319 90.141.267 37.924.565 80.424-5.974 116.846-21.284-33.646-36.426-83.664-51.114-132.18-13.407-44.287-26.071-86.117-43.12-116.611-.906-1.621-2.638-2.633-4.493-2.559a5 5 0 0 0-4.355 2.785c-8.973 18.188-7.028 46.588-4.968 76.654 2.056 30.02 4.175 60.939-3.765 84.611-12.072-22.268-21.224-49.043-25.896-64.092-2.423-7.803-5.089-13.162-10.23-13.951-5.916-.906-9.699 4.568-15.439 12.857-9.693 13.994-24.341 35.141-54.691 40.715l1.807 9.836c34.413-6.32 51.122-30.443 61.105-44.857 1.872-2.701 4.086-5.9 5.626-7.629.545 1.076 1.315 2.912 2.272 5.994 5.437 17.514 16.815 50.551 31.936 75.035.953 1.543 2.658 2.432 4.479 2.369a5.002 5.002 0 0 0 4.248-2.76c13.451-26.908 10.947-63.461 8.526-98.811-1.583-23.1-3.094-45.166.44-61.119 13.961 28.5 25.164 65.504 36.948 104.428 16.401 54.174 33.36 110.191 59.221 144.816a5 5 0 0 0 8.877-1.867c9.198-39.883 8.859-88.068 8.56-130.582-.217-30.908-.411-58.326 3.046-76.525 5.406 9.076 12.464 22.85 18.915 35.439 8.65 16.881 16.821 32.826 21.842 39.504.998 1.326 4.034 5.34 8.751 5.096 5.298-.301 8.267-5.357 12.376-12.354 7.573-12.895 20.248-34.477 53.948-40.668L460.3 386.01c12.973-2.383 19.722-19.916 25.677-35.385 1.908-4.957 4.391-11.408 6.246-14.35.69 1.127 1.692 3.105 2.944 6.51 10.486 28.504 19.027 51.018 33.501 81.25a5.002 5.002 0 0 0 9.469-1.522c.978-7.586 1.829-15.223 2.652-22.611 1.897-17.029 4.719-42.352 8.49-47.445.198.164.442.385.733.686.839.865 1.61 1.67 2.327 2.418 10.952 11.42 12.868 11.436 30.2 8.055 2.341-.457 5.021-.98 8.116-1.549l99.87-18.342c18.358-3.371 22.488-29.49 25.807-50.477 1.079-6.821 2.652-16.772 4.404-20.107.794.646 2.165 2.01 4.189 4.837 9.461 13.215 25.33 53.079 40.675 91.631 9.898 24.867 20.134 50.582 28.842 69.639 13.266 29.033 19.237 34.52 25.084 34.219 2.583-.139 6.022-1.596 7.734-7.748 4.397-15.801-3.258-85.719-11.362-159.742-3.947-36.052-8.028-73.332-10.383-102.023-1.991-24.252-2.296-37.318-2.035-44.353 11.84 24.95 27.046 68.037 41.764 109.741 31.543 89.38 38.12 104.085 46.614 104.085h.048c1.395-.01 4.813-.541 6.415-5.275 2.662-7.867 5.096-24.219 7.673-41.531 2.46-16.527 6.362-42.734 10.019-51.967 13.916 23.901 28.921 22.345 76.221 13.657l114.585-21.046c13.602-2.499 18.198-20.008 21.24-31.594.167-.637.347-1.321.532-2.016 2.884 7.457 6.457 19.715 10.225 32.644 13.121 45.015 17.829 57.104 26.061 56.614 6.648-.416 8.084-9.398 8.773-13.715 2.954-18.49 1.022-53.731-.683-84.824-.672-12.263-1.443-26.322-1.616-36.507 3.719 9.407 7.935 21.385 12.052 33.083 16.977 48.227 20.868 56.087 27.738 55.952 1.395-.024 4.807-.608 6.344-5.505 5.646-17.987 16.804-28.631 33.162-31.635l109.332-20.081c3.868-.709 9.791 6.709 14.117 12.126 5.729 7.173 10.675 13.366 17.207 11.856 6.001-1.391 8.372-8.786 9.769-15.073 2.933-13.208 2.056-43.02 1.127-74.583-.685-23.281-1.672-56.844.457-69.061.248.434.516.92.803 1.466 8.725 16.606 21.9 65.46 34.642 112.707 8.314 30.828 16.911 62.706 24.494 86.537 11.461 36.021 17.017 43.101 23.26 43.567 2.021.154 5.76-.428 8.198-6 6.808-15.553 6.304-63.007 5.817-108.899-.298-28.012-.69-64.995 1.791-78.059 7.03 11.964 16.463 35.285 25.603 57.88 22.29 55.107 29.616 69.863 38.656 68.69 6.395-.828 7.437-8.99 7.829-12.063 1.427-11.178 1.677-21.95 1.898-31.454.604-25.886 1.527-38.445 15.799-41.067l120.895-22.204-1.807-9.835-120.894 22.205z"/><path d="M2099.097 73.632l-37.445 6.877c-38.2 7.017-52.879 32.011-60.765 45.439-1.393 2.372-3.047 5.188-4.217 6.69a16.16 16.16 0 0 1-.295-.379c-4.505-5.991-12.858-22.292-20.937-38.056-10.349-20.196-20.124-39.272-26.097-46.025a5.003 5.003 0 0 0-4.678-1.6 5.003 5.003 0 0 0-3.766 3.203c-6.821 18.74-6.589 51.828-6.319 90.141.268 37.925.566 80.423-5.974 116.847-21.283-33.648-36.426-83.666-51.114-132.182-13.406-44.286-26.07-86.115-43.119-116.61a5 5 0 0 0-4.363-2.56l-.13.001a4.999 4.999 0 0 0-4.354 2.786c-8.975 18.187-7.028 46.587-4.969 76.655 2.057 30.019 4.175 60.938-3.766 84.609-12.072-22.266-21.224-49.042-25.896-64.09-2.406-7.75-5.06-13.067-10.188-13.826-5.933-.885-9.687 4.689-15.385 13.114-9.098 13.446-24.325 35.951-54.788 41.545l1.807 9.836c34.588-6.353 51.286-31.032 61.264-45.777 1.845-2.726 4.023-5.946 5.557-7.723.532 1.072 1.271 2.858 2.183 5.795 5.438 17.513 16.815 50.55 31.937 75.035a5.03 5.03 0 0 0 4.478 2.368 5.001 5.001 0 0 0 4.249-2.759c13.451-26.908 10.947-63.461 8.525-98.811-1.583-23.099-3.095-45.167.44-61.119 13.961 28.5 25.164 65.504 36.948 104.429 16.4 54.173 33.359 110.191 59.221 144.816a5 5 0 0 0 8.878-1.869c9.198-39.881 8.858-88.067 8.56-130.581-.218-30.908-.411-58.326 3.047-76.526 5.405 9.077 12.462 22.849 18.913 35.438 8.651 16.882 16.822 32.829 21.844 39.505.998 1.327 4.018 5.378 8.751 5.096 5.298-.301 8.267-5.357 12.376-12.354 7.573-12.895 20.248-34.478 53.948-40.667l37.445-6.877-1.806-9.834z"/></g></svg>