<svg xmlns="http://www.w3.org/2000/svg" width="2100" height="595.279" viewBox="0 0 2100 595.279"><path d="M1604.106 295.701c-23.289-.001-27.674 21.083-32.749 45.499-1.887 9.069-4.023 19.349-7.288 29.591-.112.354-.221.677-.327.973-4.799-10.328-11.331-42.105-15.837-64.044-5.54-26.955-10.772-52.416-16.119-65.554-2.118-5.21-5.098-7.647-8.856-7.24-9.245 1-13.289 18.696-25.264 88.002-6.953 40.248-14.793 85.627-22.721 100.308-1.673-4.187-4.411-14.562-7.526-40.222-2.922-24.078-5.472-55.21-7.938-85.316-4.226-51.582-8.215-100.303-14.126-119.269-1.141-3.664-3.815-12.242-10.451-11.745-9.137.687-12.783 16.595-22.431 79.458-4.487 29.232-9.126 59.458-13.912 70.771-1.656 3.914-2.88 5.716-3.561 6.516-1.561-1.657-3.903-6.025-5.529-9.058-4.966-9.258-10.596-19.751-20.506-19.75l-111.16-.005c-18.463-.001-33.605 8.67-44.111 25.168-2.879-10.24-6.311-31.951-8.749-47.382-2.801-17.715-5.696-36.035-8.575-46.765-.621-2.32-2.282-8.479-7.604-8.122-5.693.386-7.346 7.731-9.391 19.784-1.632 9.616-3.322 22.86-5.112 36.881-3.685 28.887-8.272 64.836-14.163 81.479a49.947 49.947 0 0 1-.578 1.563c-2.701-10.058-5.046-32.972-6.555-47.729-1.492-14.597-2.902-28.386-4.634-36.567-.86-4.062-2.31-10.871-7.743-11.488-5.396-.623-7.892 4.701-11.67 12.761-4.011 8.554-10.073 21.482-17.545 21.481l-116.502-.006c-50.953-.001-56.902-2.08-63.664-22.245-2.003-5.973-5.413-7.234-7.923-7.242-8.39-.025-14.153 13.122-29.618 58.346-4.328 12.658-8.469 24.766-11.792 32.518-5.215-15.99-12.64-62.72-18.271-98.164-7.181-45.194-14.607-91.927-22.096-118.818-1.097-3.94-3.378-12.134-9.726-11.504-5.398.538-7.608 6.698-9.798 17.877-1.627 8.297-3.232 20.1-4.909 36.081-3.096 29.498-5.998 69.375-8.805 107.937-4.721 64.866-10.053 138.134-16.159 154.229-1.895-3.468-5.238-11.872-10.213-32.199-4.801-19.627-9.894-45.116-14.816-69.768-8.625-43.176-16.769-83.959-24.206-99.767-2.664-5.665-6.517-12.124-12.74-11.811-7.864.398-11.479 10.668-16.953 26.212-5.691 16.165-13.486 38.305-25.069 38.304l-101.541-.006c-3.191.001-5.957.031-8.373.056-7.041.079-11.29.122-13.267-.791-1.643-.763-3.187-3.032-6.521-8.091a662.174 662.174 0 0 0-1.881-2.842c-3.533-5.302-7.401-5.949-10.026-5.56-9.583 1.425-15 18.064-25.391 52.546-.481 1.597-.966 3.206-1.456 4.824-5.878-23.856-9.498-43.902-13.665-68.061-1.264-7.332-3.378-14.985-9.465-16.149-.021-.006-.043-.01-.065-.014-7.075-1.3-11.946 6.662-19.309 18.692-6.555 10.714-15.533 25.385-23.118 25.384l-110.091-.006c-38.839 0-57.793 21.929-67.975 33.711-1.8 2.081-3.935 4.551-5.357 5.817a21.268 21.268 0 0 1-.222-.426c-3.348-6.707-8.617-24.247-13.714-41.21-6.53-21.735-12.697-42.264-17.352-49.985a4.998 4.998 0 0 0-8.594.052c-10.095 17.198-15.845 49.784-22.503 87.514-6.59 37.348-13.977 79.202-26.989 113.843-14.854-36.938-20.708-88.869-26.388-139.24-5.184-45.979-10.081-89.409-21.339-122.482-.599-1.758-2.119-3.066-3.957-3.329a5 5 0 0 0-4.787 1.953c-12.112 16.267-15.331 44.551-18.737 74.494-3.403 29.898-6.905 60.69-18.992 82.537-7.85-24.082-12.013-52.07-13.889-67.715-.973-8.112-2.626-13.865-7.541-15.57-5.655-1.96-10.365 2.741-17.508 9.856-12.062 12.011-30.29 30.164-61.147 30.162v10c34.989.002 55.782-20.704 68.205-33.077 2.329-2.318 5.085-5.064 6.912-6.487.341 1.157.767 3.102 1.151 6.306 2.183 18.208 7.404 52.756 17.852 79.569.658 1.69 2.175 2.872 3.977 3.14a5.004 5.004 0 0 0 4.677-1.947c18.092-24.034 22.234-60.438 26.241-95.643 2.617-23.006 5.118-44.982 11.477-60.034 8.582 30.553 12.914 68.973 17.47 109.383 6.342 56.247 12.9 114.406 32.079 153.135a4.996 4.996 0 0 0 4.608 2.779 4.998 4.998 0 0 0 4.46-3.012c16.253-37.564 24.626-85.018 32.015-126.886 5.372-30.438 10.135-57.44 16.823-74.714 3.677 9.903 8.13 24.726 12.2 38.272 5.457 18.165 10.612 35.325 14.344 42.8.742 1.484 3.003 5.981 7.686 6.594 5.266.661 9.099-3.775 14.405-9.914 9.779-11.314 26.145-30.25 60.409-30.25l110.09.006c13.189.001 22.997-16.023 31.649-30.162 2.771-4.53 6.38-10.426 8.735-12.985.476 1.233 1.104 3.36 1.72 6.935 5.163 29.929 9.495 53.616 18.268 85.965a5 5 0 1 0 9.588.214c2.333-7.284 4.55-14.643 6.695-21.76 4.942-16.407 12.293-40.801 16.923-45.129.165.197.364.459.597.808a613.998 613.998 0 0 1 1.852 2.798c8.708 13.21 10.59 13.571 28.248 13.378 2.385-.026 5.115-.056 8.263-.057l101.54.006c18.665.002 27.447-24.94 34.503-44.981 2.294-6.514 5.639-16.017 7.965-18.98.664.779 1.766 2.368 3.246 5.514 6.917 14.707 15.322 56.781 23.448 97.472 5.242 26.246 10.663 53.387 15.785 73.704 7.801 30.952 12.682 37.428 18.488 38.188 2.564.329 6.211-.482 9.006-6.223 7.18-14.746 12.285-84.896 17.689-159.165 2.633-36.171 5.355-73.576 8.223-102.219 2.425-24.212 4.485-37.119 6.013-43.991 7.137 26.679 14.308 71.804 21.247 115.481 14.874 93.607 18.685 109.258 27.04 110.793l.047.009c1.374.242 4.831.338 7.263-4.029 4.04-7.257 9.388-22.899 15.051-39.461 5.405-15.81 13.979-40.88 19.244-49.3 9.368 26.022 24.407 27.203 72.498 27.204l116.502.006c13.829 0 21.514-16.389 26.599-27.234.279-.596.581-1.237.888-1.887 1.489 7.855 2.788 20.558 4.158 33.954 4.771 46.645 7.217 59.385 15.402 60.391 6.613.792 9.649-7.782 11.106-11.904 6.246-17.651 10.715-52.661 14.656-83.549 1.555-12.183 3.336-26.149 5.007-36.198 1.958 9.923 3.94 22.467 5.876 34.716 7.982 50.5 10.389 58.933 17.171 60.042 1.377.229 4.838.271 7.235-4.269 8.802-16.67 21.7-25.123 38.331-25.121l111.161.005c3.933.001 8.417 8.368 11.693 14.478 4.339 8.09 8.084 15.075 14.781 14.771 6.154-.284 9.822-7.129 12.332-13.06 5.271-12.461 9.796-41.94 14.586-73.151 3.532-23.021 8.626-56.21 12.929-67.842.165.472.341.999.524 1.587 5.58 17.909 9.71 68.34 13.705 117.111 2.607 31.822 5.303 64.729 8.455 89.537 4.763 37.5 8.949 45.468 15.004 47.054 1.961.517 5.742.62 9.147-4.42 9.506-14.066 17.585-60.831 25.399-106.055 4.768-27.605 11.065-64.049 15.866-76.45 4.752 13.037 9.816 37.679 14.723 61.553 11.966 58.228 16.505 74.064 25.607 74.544 6.44.342 8.938-7.498 9.88-10.45 3.424-10.735 5.616-21.285 7.551-30.593 5.271-25.351 8.448-37.536 22.96-37.536l122.917.007v-9.999l-122.915-.008zm518.199-1.168l-38.071-.002c-38.839-.001-57.793 21.928-67.976 33.71-1.798 2.081-3.934 4.553-5.356 5.818-.068-.128-.142-.27-.222-.426-3.348-6.707-8.618-24.249-13.716-41.212-6.529-21.734-12.696-42.262-17.351-49.983a5.001 5.001 0 0 0-8.595.051c-10.096 17.199-15.846 49.785-22.504 87.515-6.589 37.349-13.975 79.201-26.989 113.844-14.852-36.939-20.708-88.871-26.388-139.242-5.183-45.979-10.079-89.407-21.339-122.481a5 5 0 0 0-3.828-3.306c-.042-.008-.084-.016-.127-.022a5 5 0 0 0-4.787 1.953c-12.112 16.266-15.33 44.55-18.737 74.495-3.401 29.897-6.905 60.689-18.993 82.535-7.85-24.08-12.013-52.069-13.889-67.713-.966-8.057-2.615-13.767-7.522-15.44-5.675-1.942-10.374 2.861-17.501 10.119-11.378 11.58-30.42 30.964-61.393 30.961v9.999c35.166.002 56.049-21.252 68.526-33.952 2.308-2.347 5.032-5.121 6.86-6.591.331 1.151.734 3.04 1.102 6.094 2.183 18.207 7.403 52.755 17.853 79.569a5.033 5.033 0 0 0 3.976 3.139 5.002 5.002 0 0 0 4.678-1.946c18.092-24.034 22.234-60.438 26.24-95.643 2.616-23.005 5.117-44.983 11.477-60.034 8.581 30.553 12.913 68.973 17.47 109.385 6.341 56.244 12.898 114.405 32.078 153.133a4.995 4.995 0 0 0 4.608 2.78 4.999 4.999 0 0 0 4.461-3.014c16.254-37.563 24.626-85.018 32.016-126.885 5.369-30.439 10.135-57.439 16.824-74.715 3.676 9.904 8.128 24.725 12.198 38.272 5.459 18.167 10.612 35.328 14.346 42.8.742 1.486 2.981 6.016 7.687 6.594 5.265.661 9.1-3.774 14.404-9.914 9.779-11.315 26.145-30.252 60.408-30.249l38.072.002v-9.998z" fill="#FFD4D6"/></svg>