<svg version="1.2" baseProfile="tiny" xmlns="http://www.w3.org/2000/svg" width="1711.438" height="532" viewBox="0 0 1711.438 532"><path fill="#FFD4D6" d="M219.709 524.636a5 5 0 0 1-4.005-2.008c-25.862-34.625-42.821-90.644-59.222-144.817-11.784-38.924-22.986-75.928-36.948-104.427-3.534 15.952-2.022 38.019-.44 61.117 2.421 35.351 4.925 71.904-8.526 98.812a5.001 5.001 0 0 1-4.248 2.76c-1.813.065-3.526-.824-4.478-2.368-15.12-24.481-26.499-57.521-31.936-75.035-.958-3.083-1.728-4.918-2.272-5.994-1.54 1.729-3.754 4.927-5.626 7.629-9.983 14.413-26.692 38.537-61.105 44.857l-1.807-9.836c30.35-5.574 44.998-26.722 54.691-40.716 5.74-8.288 9.528-13.764 15.439-12.856 5.141.789 7.807 6.148 10.229 13.951 4.672 15.05 13.825 41.827 25.896 64.091 7.94-23.671 5.821-54.591 3.765-84.61-2.06-30.067-4.005-58.468 4.968-76.653a5 5 0 0 1 4.355-2.787 5.018 5.018 0 0 1 4.493 2.558c17.049 30.496 29.712 72.325 43.119 116.61 14.688 48.516 29.831 98.534 51.115 132.182 6.54-36.423 6.241-78.922 5.974-116.846-.27-38.313-.502-71.401 6.319-90.142a4.998 4.998 0 0 1 8.444-1.602c5.973 6.754 15.749 25.832 26.099 46.03 8.077 15.762 16.429 32.061 20.934 38.052.105.14.204.266.295.379 1.17-1.503 2.824-4.318 4.217-6.69 7.886-13.429 22.565-38.423 60.765-45.439l108.279-19.888c7.46-1.37 13.64-17.421 18.151-29.141 5.083-13.204 8.431-21.891 15.681-21.874 6.197.047 9.659 7.191 12.227 14.175 8.464 23.008 15.646 42.069 25.737 64.472.189-1.68.375-3.35.56-5.008 3.988-35.793 6.312-53.138 15.478-56.271 2.51-.856 6.433-.921 10.866 3.655.852.879 1.635 1.696 2.363 2.455 4.194 4.375 6.123 6.327 7.877 6.779 2.109.547 6.281-.269 13.192-1.616 2.372-.463 5.086-.992 8.224-1.568l99.869-18.344c11.393-2.092 15.059-25.275 17.736-42.203 2.574-16.277 4.275-27.031 11.936-28.843 6.063-1.435 11.021 4.225 14.665 9.314 10.171 14.206 25.551 52.845 41.835 93.753 9.297 23.355 18.91 47.507 27.179 65.94 8.565 19.095 13.373 26.756 15.863 29.826 3.099-16.935-4.897-89.963-11.975-154.614-4.208-38.436-8.56-78.18-10.844-107.75-1.238-16.021-1.791-27.918-1.692-36.373.134-11.39 1.195-17.848 6.407-19.354 6.127-1.771 9.853 5.881 11.644 9.558 12.225 25.096 27.973 69.717 43.202 112.868 11.943 33.843 27.69 78.463 35.709 93.25 1.868-8.227 3.752-20.882 5.722-34.113 7.038-47.277 10.331-61.248 18.587-62.74 2.472-.447 6.052.179 9.102 5.692 10.294 18.61 16.523 19.578 66.636 10.375l114.586-21.046c7.35-1.35 10.975-15.159 13.374-24.297 2.26-8.61 3.753-14.298 9.172-14.661 5.496-.377 8.112 6.061 9.692 9.9 3.182 7.734 7.06 21.041 11.166 35.129 4.151 14.244 10.598 36.359 15.071 45.762.096-.496.191-1.042.287-1.642 2.785-17.433.802-53.619-.793-82.695-.774-14.114-1.505-27.446-1.638-37.199-.166-12.224.132-19.748 5.661-21.156 5.18-1.315 7.916 4.444 8.947 6.613 4.769 10.033 10.926 27.522 16.879 44.436 5.188 14.741 12.488 35.481 17.172 45.034 7.353-18.125 20.68-29.392 38.837-32.727l109.33-20.081c9.758-1.792 17.182 7.513 23.738 15.721 2.146 2.688 5.241 6.561 7.074 7.909.525-.909 1.403-2.902 2.325-7.051 2.662-11.992 1.763-42.561.894-72.123-1.869-63.571-1.157-79.877 7.705-82.202 6.438-1.686 10.617 6.266 12.401 9.663 9.241 17.586 21.971 64.786 35.447 114.758 7.865 29.165 15.999 59.323 23.223 82.475 7.7 24.674 12.268 34.383 14.671 38.199 5.143-15.871 4.654-61.922 4.221-102.766-.747-70.327.034-88.462 8.945-91.115 3.62-1.079 6.991.778 10.019 5.52 7.634 11.957 17.382 36.056 27.701 61.569 8.397 20.76 20.563 50.833 27.149 60.124.05-.312.098-.649.145-1.016 1.361-10.665 1.605-21.161 1.821-30.422.58-24.93 1.082-46.461 23.989-50.668l120.895-22.205 1.807 9.835-120.895 22.205c-14.273 2.622-15.196 15.18-15.799 41.065-.222 9.504-.472 20.276-1.898 31.455-.393 3.073-1.435 11.235-7.829 12.063-9.026 1.159-16.364-13.582-38.654-68.687-9.141-22.597-18.574-45.919-25.605-57.884-2.48 13.066-2.088 50.046-1.791 78.054.487 45.894.991 93.349-5.816 108.902-2.439 5.571-6.188 6.151-8.198 6.001-6.244-.467-11.8-7.547-23.261-43.566-7.583-23.831-16.18-55.708-24.493-86.535-12.742-47.247-25.918-96.103-34.644-112.71a48.572 48.572 0 0 0-.802-1.465c-2.129 12.218-1.142 45.779-.457 69.059.928 31.563 1.805 61.376-1.128 74.584-1.396 6.287-3.767 13.682-9.768 15.073-6.533 1.509-11.478-4.683-17.207-11.856-4.327-5.418-10.257-12.841-14.118-12.127l-109.33 20.081c-16.358 3.004-27.516 13.648-33.162 31.635-1.537 4.897-4.949 5.481-6.344 5.505l-.15.001c-6.782 0-10.737-8.079-27.592-55.964-4.116-11.694-8.331-23.668-12.049-33.073.173 10.187.944 24.246 1.617 36.511 1.704 31.091 3.637 66.331.683 84.821-.69 4.316-2.126 13.298-8.774 13.715-8.251.516-12.94-11.606-26.06-56.615-3.769-12.929-7.342-25.188-10.225-32.645-.187.695-.366 1.38-.533 2.017-3.042 11.586-7.638 29.096-21.239 31.594l-114.586 21.046c-47.3 8.687-62.307 10.243-76.221-13.657-3.657 9.232-7.559 35.44-10.02 51.967-2.577 17.313-5.011 33.664-7.673 41.53-1.602 4.734-5.02 5.267-6.415 5.275l-.049.001c-8.494 0-15.07-14.706-46.615-104.087-14.718-41.704-29.924-84.79-41.763-109.739-.261 7.035.045 20.1 2.035 44.352 2.354 28.691 6.436 65.97 10.383 102.022 8.104 74.025 15.76 143.944 11.362 159.744-1.712 6.152-5.151 7.609-7.734 7.749-5.849.299-11.818-5.186-25.084-34.219-8.708-19.058-18.943-44.772-28.842-69.64-15.346-38.552-31.213-78.416-40.675-91.63-2.024-2.828-3.394-4.191-4.189-4.837-1.751 3.334-3.325 13.286-4.404 20.107-3.319 20.986-7.449 47.104-25.807 50.477l-99.869 18.344c-3.097.568-5.776 1.091-8.117 1.547-17.331 3.379-19.249 3.365-30.201-8.056-.717-.748-1.488-1.553-2.327-2.418-.29-.3-.535-.521-.733-.685-3.772 5.093-6.593 30.417-8.491 47.448-.823 7.387-1.674 15.024-2.651 22.61a5 5 0 0 1-9.469 1.521c-14.473-30.23-23.014-52.744-33.5-81.25-1.252-3.405-2.254-5.384-2.944-6.511-1.855 2.941-4.338 9.394-6.246 14.35-5.955 15.47-12.704 33.002-25.677 35.385l-108.278 19.888c-33.701 6.189-46.376 27.771-53.949 40.667-4.109 6.997-7.078 12.053-12.376 12.354-4.715.241-7.753-3.77-8.751-5.097-5.021-6.677-13.191-22.621-21.841-39.502-6.452-12.591-13.51-26.364-18.916-35.442-3.458 18.2-3.264 45.618-3.046 76.525.299 42.515.638 90.7-8.56 130.582a5.001 5.001 0 0 1-4.873 3.876z"/></svg>