<svg id="Layer_1" xmlns="http://www.w3.org/2000/svg" viewBox="0 0 495.8 50.6"><style>.st0{fill:#9b9b9b}</style><path id="XMLID_281_" class="st0" d="M40 16c0 4.4-1.5 8.2-4.7 11.3C32.2 30.5 28.4 32 24 32H8v16H0V24h24c2.2 0 4-.8 5.6-2.3 1.6-1.6 2.4-3.4 2.4-5.6s-.8-4.1-2.4-5.6C28 8.8 26.2 8 24 8H8L0 0h24c4.4 0 8.2 1.6 11.3 4.7C38.4 7.9 40 11.6 40 16z"/><path id="XMLID_278_" class="st0" d="M52.7 40l-4.1 8h-8.9l24-48 16 32h-9l-7-14.1L56.6 32l-3.9 8zm35 8h-8.9l-4-8h8.9l4 8z"/><path id="XMLID_275_" class="st0" d="M126.8 34.6l8 2.6c-1.1 1.6-2.3 3.1-3.8 4.4-1.4 1.3-3 2.5-4.7 3.4-1.7 1-3.5 1.7-5.5 2.2-1.9.5-3.9.8-6 .8-6.7 0-12.2-2.4-16.9-7.1S90.7 30.7 90.7 24c0-6.6 2.3-12.2 7.1-16.9 4.6-4.7 10.3-7.1 16.9-7.1 3.3 0 6.4.6 9.4 1.9 2.9 1.3 5.5 3 7.7 5.2l-5.8 5.6c-3.1-3.1-6.8-4.7-11.3-4.7-4.4 0-8.2 1.5-11.3 4.7-3.1 3.1-4.6 6.9-4.6 11.3s1.5 8.2 4.6 11.3 7 4.6 11.3 4.6c2.4 0 4.6-.5 6.7-1.4 2-.9 3.8-2.2 5.4-3.9zM114.7 20h20l-8 8h-12.1l.1-8z"/><path id="XMLID_141_" class="st0" d="M187.6 0l-10 8h-30V0h40zm-10 28h-30v-8h30m10 27.3v.7h-40v-8h30l10 7.3z"/><g id="XMLID_107_"><path id="XMLID_142_" class="st0" d="M209.2.6h2.7l4.4 6.8 4.4-6.8h2.7v14.3h-2.5V4.6l-4.5 6.7h-.1l-4.5-6.7v10.2h-2.5L209.2.6z"/><path id="XMLID_144_" class="st0" d="M247.3.6h10.6v2.2h-8.1v3.7h7.2v2.2h-7.2v3.8h8.2v2.2h-10.7V.6z"/><path id="XMLID_146_" class="st0" d="M281.3.6h5.3c4.5 0 7.6 3.1 7.6 7.2 0 4-3.1 7.2-7.6 7.2h-5.3V.6zm5.3 12c3 0 5-2 5-4.9 0-2.8-2-4.9-5-4.9h-2.8v9.7h2.8v.1z"/><path id="XMLID_247_" class="st0" d="M317.7.6h2.5v14.3h-2.5V.6z"/><path id="XMLID_249_" class="st0" d="M349.5.5h2.3l6.3 14.4h-2.7l-1.5-3.5h-6.8l-1.5 3.5H343L349.5.5zm3.6 8.7l-2.5-5.7-2.5 5.7h5z"/></g><g id="XMLID_140_"><path id="XMLID_252_" class="st0" d="M210.4 45.5l1.5-1.8c1.4 1.2 2.7 1.9 4.5 1.9 1.6 0 2.5-.7 2.5-1.8 0-1-.6-1.6-3.2-2.2-3-.7-4.8-1.6-4.8-4.3 0-2.5 2-4.1 4.9-4.1 2.1 0 3.7.6 5.2 1.8l-1.3 1.9c-1.3-1-2.6-1.5-3.9-1.5-1.5 0-2.3.8-2.3 1.7 0 1.1.7 1.6 3.4 2.2 3 .7 4.6 1.8 4.6 4.2 0 2.7-2.1 4.3-5.1 4.3-2.3 0-4.3-.8-6-2.3z"/><path id="XMLID_254_" class="st0" d="M244.1 40.4c0-4 3.1-7.4 7.5-7.4s7.5 3.3 7.5 7.4c0 4-3.1 7.4-7.5 7.4-4.5 0-7.5-3.3-7.5-7.4zm12.3 0c0-2.8-2-5.1-4.9-5.1-2.8 0-4.8 2.3-4.8 5.1s2 5.1 4.9 5.1c2.8 0 4.8-2.3 4.8-5.1z"/><path id="XMLID_257_" class="st0" d="M282.4 33.3h2.5v12h7.5v2.3h-10V33.3z"/><path id="XMLID_259_" class="st0" d="M315.1 41.5v-8.2h2.5v8.1c0 2.7 1.4 4.1 3.6 4.1s3.6-1.3 3.6-4v-8.2h2.5v8.1c0 4.3-2.4 6.4-6.2 6.4-3.6 0-6-2.1-6-6.3z"/><path id="XMLID_261_" class="st0" d="M354.7 35.6h-4.5v-2.3h11.6v2.3h-4.5v12h-2.5v-12h-.1z"/><path id="XMLID_263_" class="st0" d="M384.9 33.3h2.5v14.3h-2.5V33.3z"/><path id="XMLID_265_" class="st0" d="M410.9 40.4c0-4 3.1-7.4 7.5-7.4s7.5 3.3 7.5 7.4c0 4-3.1 7.4-7.5 7.4-4.5 0-7.5-3.3-7.5-7.4zm12.3 0c0-2.8-2-5.1-4.9-5.1s-4.8 2.3-4.8 5.1 2 5.1 4.9 5.1 4.8-2.3 4.8-5.1z"/><path id="XMLID_268_" class="st0" d="M449.2 33.3h2.3l7.7 9.9v-9.9h2.5v14.3h-2.1l-7.9-10.2v10.2h-2.5V33.3z"/><path id="XMLID_270_" class="st0" d="M484.7 45.5l1.5-1.8c1.4 1.2 2.7 1.9 4.5 1.9 1.6 0 2.5-.7 2.5-1.8 0-1-.6-1.6-3.2-2.2-3-.7-4.8-1.6-4.8-4.3 0-2.5 2-4.1 4.9-4.1 2.1 0 3.7.6 5.2 1.8l-1.3 1.9c-1.3-1-2.6-1.5-3.9-1.5-1.5 0-2.3.8-2.3 1.7 0 1.1.7 1.6 3.4 2.2 3 .7 4.6 1.8 4.6 4.2 0 2.7-2.1 4.3-5.1 4.3-2.2 0-4.3-.8-6-2.3z"/></g></svg>