<svg version="1.2" baseProfile="tiny" xmlns="http://www.w3.org/2000/svg" width="65.375" height="65.23" viewBox="0 0 65.375 65.23"><path fill="#959595" d="M61.886 20.387a31.796 31.796 0 0 0-7.21-10.501 31.728 31.728 0 0 0-3.144-2.666 31.707 31.707 0 0 0-5.846-3.438 31.314 31.314 0 0 0-6.674-2.153 31.547 31.547 0 0 0-4.29-.564 31.47 31.47 0 0 0-1.824-.063L32.715 1C15.268 1 1.073 15.195 1.073 32.642c0 15.634 11.399 28.655 26.321 31.192.409.07.819.133 1.232.187 1.339.174 2.703.263 4.088.263 4.847 0 9.441-1.097 13.551-3.052.054-.026.108-.05.162-.077l.229-.113.216-.108c.062-.031.123-.06.184-.092l.29-.151.259-.137c.097-.052.195-.104.292-.158l.188-.105.302-.169.106-.061a31.958 31.958 0 0 0 7.782-6.323 31.866 31.866 0 0 0 3.839-5.286 32.167 32.167 0 0 0 1.771-3.555 31.474 31.474 0 0 0 2.47-12.255 31.452 31.452 0 0 0-2.469-12.255zM46.288 5.898c1.958 6.401 5.099 12.343 8.894 18.031-.026-.162-.096-.304-.165-.448-1.398-2.917-2.852-5.811-4.181-8.759-1.198-2.659-2.317-5.348-3.23-8.11a30.06 30.06 0 0 1 4.814 3.436 53.156 53.156 0 0 0 1.961 4.945c1.078 2.355 2.38 4.607 3.581 6.907l.203-.1c-.047-.124-.085-.252-.144-.371a62.618 62.618 0 0 1-3.768-9.639 30.8 30.8 0 0 1 1.537 1.712c.203.584.415 1.169.64 1.751-.113-.462-.228-.923-.342-1.385a30.005 30.005 0 0 1 4.948 8.898c-.005.382-.144.609-.487.782-1.371.69-2.74 1.382-4.099 2.095-.367.193-.581.098-.825-.198-1.242-1.5-2.578-2.928-3.738-4.487-3.986-5.351-7.281-11.116-10.377-16.995a30.006 30.006 0 0 1 4.778 1.935zm10.716 21.154c.38-1.069 1.073-1.715 2.073-2.178-.265 1.177-1 1.777-2.073 2.178zm1.546.491c-.073.733-.415 1.135-1.181 1.415-.037-.826.697-.997 1.181-1.415zm-3.729 1.999l-.001-.001-.948.765.067-1.015c.294.212.688-.288.881.25l.021-.017-.003.009.73-.395.133.18c-.302.253-.602.508-.903.763l-.1-.104.14-.444-.017.009zm-2.489 16.653c1.11 1.157.785 5.486-.511 6.079.952-1.988.472-4.053.511-6.079zm-.387 4.764v-4.443l.12-.001v4.443l-.12.001zm1.178-4.112l.218-.011.401 5.238c-.237.042-.371.075-.507.087-.14.012-.281.003-.45.003.611-1.768.461-3.543.338-5.317zm.528.074c.678 1.616.412 3.445.837 5.165l-.223.064c-.083-.262-.216-.52-.241-.788-.14-1.496-.254-2.998-.373-4.441zm-3.029-2.893c.241-.776.447-1.624.784-2.415.111-.26.562-.507.864-.515.261-.008.665.272.776.525.337.771.563 1.591.835 2.405h-3.259zm-2.099-.26l.224.061c-.098 1.332-.399 2.609-1.036 3.795l-.208-.057 1.02-3.799zM47.2 47.113c.114-1.471.283-2.841 1.131-4.001l.19.056-1.321 3.945zm.925.474c.264-.616.536-1.237.701-1.884.165-.644.201-1.321.293-1.984l.119.012-.351 4.857c-.884.032-1.078-.259-.762-1.001zm.077-6.535c.023-.982.195-2.009.794-2.915.27-.406.77-.371.987.101.254.546.397 1.151.543 1.74.082.332.075.687.112 1.074h-2.436zm.84-4.074c.021-.222.315-.564.512-.58.193-.016.563.3.583.496.021.233-.25.494-.393.743l-.285.003c-.151-.222-.436-.456-.417-.662zm.769-9.381l-.722.375-.073-1.33c.391.192.651.359.936.449.266.083.557.083.836.12l.093.204-1.3.767-.139-.2.432-.294-.063-.091zm.543.779c.644-.697 1.138-1.496 2.271-1.117-.544.75-1.294 1.058-2.271 1.117zm3.725-1.408c-.314.648-.983 1.096-1.74 1.165.97-1.032.97-1.032 1.74-1.165zm-1.756 12.02c-.415-.855-.206-1.578.481-2.21l.167.05c-.217.719-.433 1.44-.648 2.16zm.594 1.684h-1.401c.131-.368.182-.711.368-.946.091-.115.552-.124.641-.014.191.234.248.575.392.96zm-.718-3.781c-.146-.887.126-1.543.673-2.131.237.759.085 1.26-.673 2.131zm-1.35-7.777c.485-.034.872-.062 1.401-.097-.507.481-.89.566-1.401.097zm-.421.107l-.514 1.445a31.24 31.24 0 0 1-.234-.081c.228-.47-.026-1.093.456-1.482l.292.118zm-.201 1.384l.167.059-.626 1.792-.176-.041c-.17-.738.139-1.307.635-1.81zm.784.178c.279.365.567.708.815 1.077.105.156.184.367.18.551a628.724 628.724 0 0 1-.181 6.442c-.004.152-.094.301-.129.454-.105.456-.203.914-.307 1.37-.029.125-.076.245-.111.356l-.97-3.519c.29-.31.392-.815-.041-1.367-.063-.08-.068-.234-.051-.345.259-1.672.528-3.343.795-5.019zm1.336 4.147a18.61 18.61 0 0 1-.159-.067l.737-1.763.169.071c.167.764-.304 1.256-.747 1.759zm.33-1.659l-.25-.097.564-1.513.296.119-.61 1.491zm.171-1.597c-.334-.923-.211-1.352.337-1.71l.192.063-.529 1.647zm.131-1.85a12.89 12.89 0 0 1-.159-.091l.059-.809.818-.166c.041.045.081.092.12.137l-.838.929zm.365-1.707l1.738-1.611c.008.872-.671 1.429-1.738 1.611zm3.948-2.335c-.488 1.137-1.206 2.028-2.631 2.27.901-.832 1.201-2.207 2.631-2.27zm-.19 2.639c-.133.834-.609 1.23-1.515 1.387l-.111-.147 1.626-1.24zM39.867 3.511c.903 1.925 1.874 3.821 2.851 5.714 2.715 5.26 5.761 10.318 9.325 15.07-1.483-1.331-2.948-2.672-4.274-4.14-4.127-4.568-7.47-9.709-10.668-14.945a82.533 82.533 0 0 1-1.42-2.417c1.426.141 2.824.384 4.186.718zM45.2 59.912a29.808 29.808 0 0 1-12.485 2.725c-.814 0-1.621-.033-2.419-.098l.097-.098c.738-.768 1.644-1.369 2.217-2.296.227-.367.498-.706.752-1.054.583-.797 1.257-1.542 1.731-2.398.884-1.597 1.53-3.293 1.761-5.134.114-.918.156-1.824-.12-2.706-.459-1.473-1.301-2.639-2.583-3.575-1.672-1.22-3.471-1.915-5.524-1.845-1.108.038-2.216.212-3.314.385-1.404.223-2.8.493-4.195.767-1.296.255-2.585.539-3.876.814-1.13.241-2.118-.093-3.012-.76-.134-.1-.254-.315-.254-.477a5.77 5.77 0 0 1 .127-1.252c.208-.9.702-1.674 1.173-2.453.241-.397.511-.77.795-1.131.062.052 2.658-2.394 2.941-2.715 1.009-1.149 2.021-2.294 3.034-3.44.033-.038.074-.069.111-.102l.043.024c-.019.078-.032.158-.059.233-.108.32 2.479 1.322 4.545-1.179.051-.06.165-.063.242-.053 1.084.129 2.152.081 3.188-.292.561-.201 1.055-.505 1.371-1.036.073-.121.129-.254.192-.38.296.086.414.037.551-.227.06-.114.101-.242.18-.337.077-.09.185-.192.294-.213.223-.042.36-.16.493-.335.126-.169.277-.343.457-.445.164-.092.269-.157.221-.361-.01-.044.06-.155.071-.153.203.054.334-.088.488-.167.142-.072.183-.181.174-.329-.004-.091.012-.183.02-.304.257.138.435.068.581-.13a.73.73 0 0 0 .121-.601l.125.045c.2.066.367.03.515-.13.145-.158.17-.311.053-.496-.039-.062-.04-.145-.063-.235.159.057.274.115.397.14.198.041.34-.063.453-.218.094-.128.014-.23-.048-.335-.063-.106-.1-.212-.007-.324a.31.31 0 0 1 .345-.108c.096.026.189.062.282.101.089.039.154.024.217-.055.156-.196.331-.378.476-.581.483-.682.733-1.433.658-2.278-.067-.729-.349-1.378-.731-1.989-.683-1.088-1.593-1.973-2.533-2.832-.158-.145-.321-.241-.541-.256-.172-.012-.34-.058-.508-.101-.674-.17-1.345-.354-2.022-.515-.589-.14-1.188-.206-1.792-.089-.228.043-.451.119-.701.186.037-.029.052-.044.07-.054.416-.25.873-.393 1.354-.368.538.028 1.073.111 1.609.17.07.007.141.022.212.033-1.029-.362-2.095-.479-3.175-.492l.001-.046 1.131-.062.002-.058c-.132-.033-.264-.069-.397-.097-.693-.146-1.365-.126-1.985.267-.374.236-.656.563-.918.915-.108.145-.119.251-.004.397.178.228.168.273-.021.487-.035.042-.074.08-.111.121-.205-.125-.416-.249-.625-.075-.27.227-.24.527-.125.841-.273-.105-.518-.105-.709.133-.18.225-.166.476-.075.747-.064-.027-.109-.05-.156-.065-.308-.095-.488-.037-.6.223a1.01 1.01 0 0 0-.053.357c-.002.091.029.184.05.301-.314-.152-.493-.127-.667.071a.709.709 0 0 0-.166.65c-.376-.155-.805.364-.766.795-.291-.05-.599.161-.609.419-.018.38-.056.426-.432.51-.205.044-.303.164-.309.375-.003.067.002.134.003.201 0 .206-.028.232-.234.268-.124.022-.274.027-.362.1-.221.183-.442.378-.612.608-.429.576-.494 1.241-.385 1.93.159.996.634 1.846 1.25 2.625.244.308.515.595.773.891-.119.19-.176.245-.488.352-.504.173-.748.545-.798 1.049-.023.23.019.466.021.7 0 .07-.017.16-.062.205-.797.803-1.601 1.602-2.402 2.399-.091.092-.192.156-.334.153-.082-.002-.192.024-.24.08-.298.348-.599.693-.868 1.061-.19.258-.374.523-.556.79a32.5 32.5 0 0 0-2.067 2.402c-1.106 1.43-1.938 2.966-2.297 4.745-.183.899.003 1.639.687 2.333.669.68 1.466 1.106 2.271 1.543.325.176.692.308 1.056.37.96.161 1.877-.127 2.79-.364 1.178-.307 2.336-.684 3.516-.983.992-.251 1.997-.47 3.008-.636 1.2-.196 2.411-.351 3.621-.468.582-.056 1.197-.08 1.757.05 1.076.248 2.068.775 2.909 1.466.879.721 1.554 1.669 1.453 2.897-.08.963-.209 1.935-.459 2.864-.479 1.793-1.258 3.461-2.382 4.956-.444.592-.809 1.254-1.31 1.791a93.82 93.82 0 0 1-2.761 2.811C14.169 60.53 2.72 47.898 2.72 32.642c0-16.539 13.455-29.994 29.995-29.994.323 0 .645.007.964.017 4.027 8.368 9.143 16.144 15.539 23.224-1.039.829-.968 2.125.119 2.87.142.098.215.396.209.597a417.086 417.086 0 0 1-.168 4.333l.645-1.45.252.103-.584 1.479-.314-.126c-.024.579-.048 1.158-.074 1.737-.007.171-.019.411-.126.498-.467.378-.571.82-.371 1.369.038.105.047.268-.008.349-.756 1.104-.83 2.377-.954 3.645-.04.398-.176.787-.239 1.186-.061.388-.017.804-.135 1.171-1.616 4.982-3.112 9.985-2.784 15.321.015.235.059.469.089.704l.209-.016v-3.761l.216.001v4.013zM24.966 28.747c-.223-.261-.465-.508-.7-.761-.07-.078-.141-.157-.189-.265.044.031.089.061.131.093.668.512 1.326 1.039 2.008 1.534.555.402 1.152.742 1.83.902.413.097.799.066 1.104-.278.021-.023.038-.053.081-.114-.293-.153-.573-.305-.858-.446-.568-.282-1.153-.532-1.702-.846-.364-.207-.678-.5-1.045-.78.212-.104.174-.211.075-.309-.221-.22-.447-.433-.65-.674.041.034.081.071.124.103.695.525 1.375 1.066 2.086 1.567a6.77 6.77 0 0 0 1.883.922c.305.096.67-.023.903-.313-.254-.136-.498-.274-.75-.398-.522-.259-1.055-.5-1.573-.77a3.901 3.901 0 0 1-1.202-.997c-.038-.046-.022-.137-.032-.206l.042-.006-.711-.734.02-.035c.034.015.073.023.101.045.603.487 1.199.984 1.808 1.462.519.407 1.059.781 1.666 1.047.256.112.521.2.808.17a.696.696 0 0 0 .563-.345c-.244-.149-.479-.303-.726-.438-.566-.31-1.154-.584-1.702-.922-.358-.22-.664-.522-.989-.791-.028-.022-.058-.062-.058-.094.003-.295-.205-.469-.377-.664-.072-.082-.152-.157-.228-.236l.028-.031.98.778c.529.418 1.048.851 1.589 1.253.439.329.917.592 1.474.674.318.048.588-.047.847-.313-.367-.219-.708-.435-1.063-.629-.628-.348-1.277-.661-1.837-1.121a12.124 12.124 0 0 1-.576-.51c-.12-.11-.173-.245-.083-.393l-.432-.483.045-.042c.708.569 1.404 1.155 2.129 1.704.42.318.878.584 1.329.858.124.077.279.113.424.142.38.076.687-.075.89-.434-.34-.174-.68-.347-1.019-.523-.673-.352-1.334-.725-1.903-1.233-.272-.245-.515-.521-.802-.814l.186-.024-.315-.392a.355.355 0 0 0 .023-.031c.147.104.3.199.438.311.595.481 1.181.97 1.781 1.444.386.304.798.572 1.272.722.397.125.777.117 1.145-.188-.25-.169-.484-.335-.726-.488-.774-.485-1.587-.914-2.265-1.538-.251-.231-.47-.498-.703-.749a.757.757 0 0 1 .034-.045c.042.002.084.007.157.015l-.411-.484c.006-.006.01-.014.016-.021.219.157.444.305.652.477.616.504 1.218 1.031 1.842 1.528.414.331.858.624 1.391.735a.906.906 0 0 0 .874-.252c-.248-.177-.481-.354-.726-.515-.818-.542-1.662-1.047-2.383-1.72-.163-.152-.313-.318-.465-.48-.029-.031-.058-.079-.056-.116.014-.229-.052-.415-.279-.53l.044-.034c.206.175.414.348.658.552l-.032-.198c.784.591 1.541 1.164 2.3 1.735l-.029.043a85.481 85.481 0 0 0-.506-.311.411.411 0 0 1-.028.03c.198.167.39.342.596.498.294.222.608.415.98.479.404.068.738-.092.952-.473-.202-.149-.403-.304-.61-.451-.604-.431-1.216-.851-1.811-1.292a5.72 5.72 0 0 1-1.223-1.228c-.086-.119-.078-.193.027-.294.319-.301.626-.615.942-.919a.461.461 0 0 1 .155-.093c1.218-.465 2.384-.331 3.503.305.527.299.959.709 1.292 1.213.081.122.122.27.178.401l.082-.217c.219.67.257 1.283-.248 1.855l.645.472c-.013.11-.115.174-.238.196-.192.034-.387.052-.581.07a.657.657 0 0 0-.487.24c-.124.146-.313.241-.483.342-.143.084-.31.13-.448.22-.206.135-.403.289-.25.578l-.198.149c-.233-.011-.461.137-.649.328-.062.062-.021.223-.026.323-.179.084-.403.168-.598.293-.247.156-.247.212-.169.588-.027-.029-.053-.062-.086-.084-.032-.022-.071-.035-.106-.052-.012.032-.036.07-.027.097.047.153-.043.175-.157.182-.315.017-.35.039-.421.339-.053.223-.221.304-.41.374-.154.058-.313.095-.413.258-.077.127-.1.22.078.338-.374-.001-.582.232-.818.409-.169.13-.169.132-.001.311-.289-.054-.429.139-.588.296-.055.055-.102.122-.164.167-.114.079-.161.154 0 .266-.021.011-.041.024-.061.036a11.984 11.984 0 0 0-.204-.128c-.599.591-1.194 1.236-2.047 1.541 2.465-2.637 5.11-5.092 7.63-7.672-.561.514-1.126 1.022-1.681 1.542-.657.619-1.307 1.246-1.955 1.874-.612.593-1.216 1.196-1.827 1.791-.587.571-1.179 1.138-1.769 1.707-.176.169-.356.337-.528.513-.08.08-.145.092-.26.055-.498-.157-1-.302-1.505-.436-.527-.143-1.05-.288-1.528-.567-.535-.309-.937-.744-1.262-1.273.114-.087.225-.056.331-.006.135.065.265.143.4.206.145.066.274.046.393-.078.132-.13.097-.262.003-.371zm1.448.498l1.824.724c-.274.043-1.474-.451-1.824-.724zm3.855-3.052l.035-.065c.192.102.382.207.575.31l-.032.06-.578-.305zm-.095-1.452l.041-.063.693.473a1.33 1.33 0 0 1-.041.062c-.231-.158-.461-.316-.693-.472zm.858.581c.237-.061.361.112.521.208-.006.015-.014.029-.021.044-.167-.084-.333-.169-.5-.252zm-.236-1.671c.584.24 1.033.682 1.547 1.024-.583-.238-1.074-.618-1.547-1.024zm6.011-4.233c-.12.095-.222.165-.308.25-.089.086-.164.099-.281.046-1.13-.498-2.308-.756-3.546-.608-.37.043-.733.14-1.098.216-.17.038-.271.143-.287.324-.004.043-.038.085-.081.117a.6.6 0 0 1 .099-.546c.356-.505.864-.8 1.464-.824.62-.025 1.244.062 1.865.101.043.002.087.01.139-.009-.051-.015-.103-.037-.157-.045-.736-.114-1.476-.205-2.208-.351-.585-.114-1.114-.009-1.623.263-.112.058-.213.139-.318.208.123-.21.476-.51.816-.693a2.698 2.698 0 0 1 1.298-.337 8.89 8.89 0 0 1 3.118.586c.251.096.47.244.652.442l-.001.06-.711.062c.451.153.959.241 1.168.738zm-1.11-1.52c-.304-.061-.61-.111-.91-.184-.687-.167-1.366-.363-2.055-.514-.675-.147-1.352-.146-2.005.128-.09.038-.177.08-.269.109.421-.412.94-.594 1.515-.585.41.004.824.042 1.226.121.611.12 1.217.272 1.814.442.212.06.397.215.592.331.044.026.076.071.113.108-.006.016-.014.03-.021.044zM25.023 31.505c-.292.442-.741.711-1.136 1.041.299-.435.742-.71 1.136-1.041zm20.644 28.188l-.234.109v-3.729l.234.004v3.616zm.465-.23c-.079.041-.159.08-.239.119v-3.151l.23-.002c.017 1.009.01 2.022.009 3.034zm.525-.27l-.229.12v-2.384l.229.003v2.261zm.41-.219l-.194.104V57.3h.199c0 .558-.009 1.117-.005 1.674zm.538-.301l-.259.145v-1.125l.259-.003v.983zm.48-.284a18.58 18.58 0 0 1-.188.112v-.267l.188.006v.149zm1.741-5.939c-.207 1.577-.429 3.15-.635 4.628-1.055-.838-2.099-1.643-3.109-2.489-.157-.132-.256-.472-.214-.683.323-1.642.688-3.275 1.033-4.885l2.383.74v1.266c-.002.395-.02.779.418 1.008.091.048.142.28.124.415zm-.461-4.53l.271-4.646.223.018c.278 1.579-.077 3.106-.494 4.628zm.638 2.396l.271-2.085c.064.009.129.019.195.027l-.309 2.079-.157-.021zm.783-2.396l.174.021c-.123.971-.244 1.94-.364 2.91l-.169-.02c.118-.97.239-1.941.359-2.911zm.691-1.438c.069.626.187 1.188.183 1.748a53.714 53.714 0 0 1-.138 3.428c-.037.53-.43.692-.796.38-.076-.064-.146-.205-.132-.296.281-1.726.577-3.45.883-5.26zm3.955 5.724a30.131 30.131 0 0 1-4.754 4.442c.189-.932.264-1.889.275-2.859.004-.407.043-.813.071-1.336h4.062c-.303-2.27-.589-4.414-.877-6.557-.008-.059-.07-.129-.052-.173.576-1.436-.324-2.65-.676-3.914-.233-.841-.295-1.703-.158-2.444.539-2.913 1.271-5.79 1.94-8.724l1.539-.435c-.423 7.344-.851 14.662-1.37 22zm4.086-6.111a30.168 30.168 0 0 1-3.024 4.808l.422-5.507c.305-4.026.605-8.053.908-12.08.084-1.124.191-2.248.249-3.373.04-.773.366-1.297 1.104-1.563.147-.053.272-.165.52-.32l-.179 18.035zm-.531-18.121c-.084-.047-.167-.096-.25-.144l.736-1.292.283.147-.769 1.289zm.918-1.526l.722-1.387.211.094-.659 1.424a13.752 13.752 0 0 1-.274-.131zm.237 18.329l.039-5.166c.029-3.65.091-7.3.079-10.951-.003-.959.115-1.777 1.067-2.35.023 5.039.045 10.079.069 15.117a29.996 29.996 0 0 1-1.254 3.35zm1.744-19.121a29.96 29.96 0 0 1 .823 6.986 29.96 29.96 0 0 1-.823 6.986V25.656z"/></svg>