<svg version="1.2" baseProfile="tiny" xmlns="http://www.w3.org/2000/svg" width="72.5" height="72.647" viewBox="0 0 72.5 72.647"><path d="M68.967 22.685a35.572 35.572 0 0 0-8.064-11.745 36.266 36.266 0 0 0-1.417-1.299 35.84 35.84 0 0 0-7.256-4.865 35.119 35.119 0 0 0-13.644-3.701 36.214 36.214 0 0 0-2.04-.071c-.069-.002-.138-.004-.207-.004C16.824 1 .947 16.877.947 36.392c0 17.487 12.75 32.051 29.441 34.889a35.574 35.574 0 0 0 5.95.502c5.421 0 10.56-1.227 15.157-3.414l.182-.085.255-.127.242-.121c.069-.035.137-.067.206-.103l.324-.169.29-.153c.109-.059.218-.117.326-.177l.21-.117c.113-.063.226-.125.337-.189l.119-.068a35.69 35.69 0 0 0 12.999-12.984 35.96 35.96 0 0 0 1.982-3.978A35.21 35.21 0 0 0 71.73 36.39c0-4.855-.984-9.488-2.763-13.705zM51.52 6.479c2.191 7.16 5.703 13.806 9.948 20.168-.029-.181-.107-.34-.184-.501-1.563-3.263-3.19-6.499-4.676-9.797-1.339-2.974-2.592-5.982-3.612-9.071a33.773 33.773 0 0 1 5.385 3.843 59.532 59.532 0 0 0 2.194 5.531c1.206 2.635 2.662 5.154 4.005 7.726l.227-.112c-.053-.139-.096-.283-.161-.415a70.013 70.013 0 0 1-4.214-10.781c.596.616 1.17 1.255 1.719 1.915.227.654.464 1.308.716 1.959l-.382-1.549a33.543 33.543 0 0 1 5.534 9.953c-.006.428-.161.681-.544.875a303.924 303.924 0 0 0-4.584 2.343c-.41.215-.649.109-.923-.222-1.389-1.678-2.883-3.275-4.181-5.019-4.459-5.985-8.144-12.434-11.607-19.009a33.375 33.375 0 0 1 5.34 2.163zm11.986 23.66c.425-1.195 1.2-1.918 2.319-2.437-.296 1.318-1.118 1.989-2.319 2.437zm1.73.55c-.082.82-.464 1.269-1.321 1.583-.041-.925.78-1.116 1.321-1.583zm-4.172 2.236l-.001-.002-1.06.855.075-1.136c.329.237.77-.321.985.28l.024-.019-.003.01.817-.441.149.202-1.01.853-.112-.116.156-.497a.44.44 0 0 0-.02.011zm-2.783 18.626c1.241 1.294.878 6.136-.572 6.8 1.065-2.225.529-4.534.572-6.8zm-.433 5.329v-4.97l.134-.001v4.97c-.045-.001-.09.001-.134.001zm1.318-4.6l.243-.012.449 5.858c-.266.047-.416.084-.567.097-.156.014-.314.003-.503.003.683-1.976.515-3.962.378-5.946zm.59.084c.758 1.808.46 3.854.937 5.777l-.25.072c-.093-.293-.242-.581-.27-.881-.156-1.675-.283-3.354-.417-4.968zm-3.388-3.236c.27-.869.5-1.817.877-2.701.125-.291.628-.567.966-.577.292-.008.744.305.868.588.377.862.629 1.779.934 2.69h-3.645zm-2.347-.292c.084.022.167.044.25.068-.109 1.49-.446 2.918-1.159 4.245a74.4 74.4 0 0 1-.233-.063l1.142-4.25zm-1.48 3.742c.127-1.646.316-3.177 1.265-4.476l.212.063c-.483 1.441-.966 2.883-1.477 4.413zm1.035.53c.295-.688.6-1.384.784-2.107.185-.72.225-1.477.328-2.219l.133.013-.393 5.433c-.989.036-1.207-.29-.852-1.12zm.085-7.309c.025-1.099.218-2.247.888-3.26.301-.455.86-.415 1.104.112.284.611.444 1.287.607 1.947.092.371.084.768.125 1.201h-2.724zm.94-4.558c.023-.248.352-.631.572-.649.216-.017.63.335.651.555.024.261-.279.552-.439.831-.106 0-.212.002-.319.004-.168-.248-.486-.51-.465-.741zm.859-10.491l-.807.42-.082-1.488c.437.215.728.402 1.047.502.297.093.623.093.935.134l.104.228-1.454.858-.156-.224.483-.329c-.022-.034-.046-.067-.07-.101zm.609.871c.72-.78 1.272-1.674 2.539-1.249-.608.837-1.446 1.183-2.539 1.249zm4.166-1.576c-.352.725-1.1 1.226-1.947 1.302 1.085-1.153 1.085-1.153 1.947-1.302zM58.271 43.49c-.464-.956-.23-1.765.538-2.472l.186.056-.724 2.416zm.665 1.884h-1.567c.146-.412.204-.795.412-1.059.102-.129.617-.138.717-.015.212.262.276.643.438 1.074zm-.804-4.23c-.164-.992.142-1.726.752-2.383.266.849.096 1.409-.752 2.383zm-1.509-8.698c.542-.038.975-.069 1.566-.109-.567.538-.996.634-1.566.109zm-.472.119l-.575 1.616-.262-.09c.254-.525-.029-1.222.51-1.658l.327.132zm-.224 1.549l.187.065-.701 2.005-.197-.046c-.19-.825.156-1.462.711-2.024zm.876.199c.313.408.634.792.912 1.205.117.174.206.411.201.616a721.213 721.213 0 0 1-.202 7.206c-.005.17-.105.336-.145.508-.118.51-.227 1.021-.344 1.532-.032.14-.085.274-.124.398l-1.085-3.937c.325-.347.438-.912-.045-1.529-.071-.089-.076-.262-.057-.386.29-1.869.59-3.738.889-5.613zm1.494 4.638l-.177-.075.824-1.972.19.08c.186.854-.342 1.404-.837 1.967zm.37-1.856l-.28-.108.631-1.692.331.133-.682 1.667zm.191-1.785c-.375-1.033-.237-1.512.377-1.913.072.024.144.046.214.07l-.591 1.843zm.146-2.07a16.17 16.17 0 0 1-.178-.102l.065-.904.915-.185.134.153-.936 1.038zm.409-1.909l1.944-1.802c.009.975-.751 1.597-1.944 1.802zm4.416-2.612c-.545 1.271-1.349 2.269-2.942 2.539 1.006-.93 1.342-2.468 2.942-2.539zm-.213 2.951c-.148.933-.681 1.376-1.694 1.551a10.142 10.142 0 0 1-.124-.165 936.04 936.04 0 0 0 1.818-1.386zM44.338 3.808c1.01 2.153 2.096 4.274 3.189 6.392 3.037 5.883 6.443 11.541 10.43 16.856-1.659-1.489-3.297-2.989-4.78-4.63-4.617-5.109-8.355-10.86-11.933-16.716a94.054 94.054 0 0 1-1.588-2.703c1.595.156 3.159.428 4.682.801zm5.966 63.086a33.343 33.343 0 0 1-13.965 3.047c-.911 0-1.813-.037-2.706-.109l.108-.109c.825-.859 1.838-1.532 2.48-2.569.254-.411.557-.789.841-1.179.651-.891 1.406-1.724 1.936-2.682.989-1.786 1.712-3.684 1.969-5.743.128-1.027.174-2.04-.134-3.026-.513-1.648-1.455-2.952-2.89-3.999-1.871-1.365-3.882-2.142-6.179-2.064-1.239.042-2.478.237-3.707.431-1.571.25-3.132.551-4.692.858-1.449.285-2.892.603-4.336.911-1.264.27-2.369-.104-3.369-.85-.15-.112-.285-.353-.284-.534a6.38 6.38 0 0 1 .143-1.4c.232-1.007.785-1.872 1.312-2.743a12.7 12.7 0 0 1 .89-1.265c.069.058 2.973-2.677 3.29-3.037 1.129-1.285 2.26-2.565 3.393-3.848.037-.042.083-.077.125-.114l.048.026c-.021.087-.036.177-.065.261-.121.358 2.773 1.479 5.083-1.319.057-.067.184-.07.271-.059 1.212.145 2.407.091 3.565-.326.627-.225 1.18-.564 1.534-1.159.082-.136.144-.284.214-.425.332.097.463.041.617-.254.067-.127.113-.271.202-.377.086-.101.207-.214.329-.238.25-.047.403-.179.551-.375.142-.189.31-.384.511-.498.184-.103.301-.175.247-.403-.011-.05.067-.174.08-.171.227.061.374-.099.546-.187.159-.08.205-.202.194-.367-.005-.103.013-.205.022-.34.287.154.487.076.649-.145a.813.813 0 0 0 .135-.672l.14.05c.223.074.411.034.575-.146.163-.176.19-.348.06-.554-.043-.069-.044-.163-.071-.264.178.064.307.129.444.157.222.046.381-.071.507-.244.104-.143.015-.257-.054-.375-.071-.119-.111-.237-.008-.363a.349.349 0 0 1 .386-.121c.107.03.212.069.315.113.1.043.172.027.243-.062.174-.219.37-.423.532-.65.541-.762.82-1.603.736-2.548-.075-.815-.391-1.542-.818-2.225-.763-1.217-1.781-2.207-2.833-3.167-.177-.162-.359-.269-.604-.286-.192-.014-.381-.065-.568-.113-.754-.19-1.504-.396-2.261-.576-.66-.156-1.329-.23-2.004-.1-.255.048-.504.133-.784.208.041-.033.058-.05.078-.061.466-.279.976-.439 1.514-.411.602.031 1.2.124 1.8.19.079.008.158.024.237.037-1.151-.405-2.343-.536-3.552-.55l.001-.052 1.266-.069.002-.064c-.148-.037-.296-.077-.444-.108-.775-.163-1.526-.142-2.221.299-.417.264-.734.63-1.027 1.023-.121.162-.133.281-.004.444.199.254.188.305-.022.545-.04.047-.083.089-.125.136-.229-.139-.465-.278-.699-.083-.302.253-.269.589-.14.941-.306-.118-.579-.118-.793.148-.201.252-.185.533-.084.835-.071-.03-.122-.056-.174-.073-.344-.106-.546-.041-.671.25-.051.12-.057.266-.06.399-.003.102.032.206.056.336-.352-.17-.551-.142-.746.08a.791.791 0 0 0-.186.727c-.42-.173-.901.408-.857.889-.326-.056-.669.18-.682.469-.02.425-.063.477-.483.571-.229.05-.339.183-.345.419-.003.075.003.149.003.225 0 .23-.031.259-.262.3-.139.024-.307.03-.405.112-.248.204-.495.423-.685.681-.48.644-.552 1.388-.431 2.159.178 1.114.709 2.064 1.399 2.936.272.344.576.666.865.997-.133.213-.197.273-.545.393-.564.193-.836.609-.893 1.173-.026.258.021.522.024.783 0 .078-.019.179-.069.229-.892.898-1.79 1.792-2.687 2.684-.102.103-.214.175-.374.171-.091-.002-.215.027-.269.089-.334.39-.669.775-.971 1.187-.213.289-.417.586-.622.883a36.208 36.208 0 0 0-2.312 2.687c-1.237 1.599-2.168 3.318-2.569 5.307-.204 1.005.004 1.833.769 2.61.748.761 1.64 1.237 2.54 1.727a3.89 3.89 0 0 0 1.181.413c1.074.18 2.1-.142 3.121-.407 1.317-.343 2.613-.765 3.933-1.1a40.614 40.614 0 0 1 3.364-.712 61.919 61.919 0 0 1 4.05-.524c.65-.063 1.338-.089 1.965.056 1.203.278 2.313.867 3.254 1.64.983.806 1.738 1.867 1.625 3.241-.089 1.077-.233 2.165-.513 3.204-.537 2.005-1.408 3.872-2.665 5.543-.497.662-.905 1.403-1.465 2.002a104.04 104.04 0 0 1-3.089 3.144C15.595 67.585 2.79 53.456 2.79 36.392c0-18.499 15.05-33.549 33.549-33.549.361 0 .721.007 1.079.019 4.505 9.359 10.227 18.057 17.38 25.976-1.162.927-1.083 2.377.133 3.209.159.11.241.443.234.668a490.554 490.554 0 0 1-.188 4.847c.241-.541.48-1.081.722-1.622l.282.115-.653 1.654-.351-.141c-.027.647-.054 1.295-.083 1.943-.008.191-.021.459-.141.557-.522.423-.639.917-.415 1.531.042.117.053.299-.009.391-.846 1.234-.928 2.659-1.066 4.076-.044.446-.197.88-.268 1.326-.068.434-.019.899-.151 1.31-1.808 5.573-3.481 11.169-3.114 17.137.017.263.066.525.1.787.079-.005.156-.011.234-.018v-4.207l.242.001c-.002 1.497-.002 2.994-.002 4.492zM27.672 32.036c-.25-.292-.52-.568-.782-.852a1.108 1.108 0 0 1-.212-.296c.049.035.1.067.146.104.748.573 1.483 1.162 2.246 1.716.621.45 1.288.83 2.046 1.009.462.109.894.074 1.235-.311.024-.026.042-.059.09-.127-.328-.171-.641-.341-.959-.5-.636-.315-1.29-.595-1.903-.946-.407-.231-.758-.56-1.169-.873.237-.117.195-.236.084-.345-.247-.246-.5-.485-.728-.754.046.038.09.08.138.115.777.587 1.538 1.192 2.333 1.753a7.597 7.597 0 0 0 2.106 1.032c.341.107.75-.026 1.01-.35-.284-.152-.557-.306-.839-.445-.584-.29-1.18-.559-1.76-.861a4.35 4.35 0 0 1-1.344-1.115c-.043-.051-.025-.153-.036-.23a.761.761 0 0 0 .047-.007l-.795-.821.021-.039c.039.016.082.026.113.051.674.544 1.341 1.101 2.022 1.636.58.455 1.184.873 1.863 1.171.286.125.583.224.904.191a.78.78 0 0 0 .629-.386c-.273-.167-.537-.339-.812-.489-.633-.346-1.291-.654-1.903-1.031-.4-.246-.742-.584-1.106-.884-.032-.024-.065-.069-.065-.105.003-.331-.229-.524-.421-.743-.081-.092-.17-.176-.255-.264l.032-.035 1.096.871c.592.468 1.173.951 1.778 1.401.491.368 1.026.662 1.649.754.356.053.657-.053.948-.35-.411-.245-.792-.486-1.188-.704-.703-.389-1.429-.739-2.055-1.254a13.966 13.966 0 0 1-.645-.57c-.134-.123-.194-.274-.092-.439l-.483-.541.05-.047c.792.637 1.571 1.292 2.381 1.906.47.356.982.654 1.487.96.139.085.313.126.475.159.425.085.768-.083.996-.485-.38-.194-.761-.388-1.139-.585-.753-.394-1.492-.811-2.128-1.38-.304-.273-.576-.583-.896-.91l.208-.027a181.42 181.42 0 0 1-.353-.438.318.318 0 0 0 .026-.035c.164.117.335.223.49.348.666.538 1.321 1.085 1.993 1.615.431.34.892.64 1.423.807.445.141.869.131 1.281-.21-.28-.189-.542-.375-.812-.546-.866-.542-1.775-1.022-2.534-1.72-.281-.258-.525-.557-.786-.838.012-.018.025-.033.038-.05.046.002.094.008.175.016l-.46-.542c.007-.007.012-.016.018-.023.245.176.497.341.73.533.689.564 1.362 1.153 2.06 1.709.463.37.959.697 1.556.822.357.074.68.007.977-.282-.277-.198-.538-.395-.812-.576-.915-.606-1.859-1.171-2.666-1.924-.183-.17-.35-.356-.52-.537-.033-.035-.065-.088-.063-.13.016-.256-.058-.464-.312-.593l.049-.038c.23.195.462.39.736.617l-.036-.221 2.572 1.941-.032.048-.566-.348-.031.034c.221.187.436.383.667.557.33.249.68.464 1.097.535.453.077.825-.103 1.064-.528-.225-.167-.451-.34-.682-.505-.675-.482-1.36-.952-2.025-1.444a6.389 6.389 0 0 1-1.368-1.374c-.096-.133-.087-.216.031-.33.356-.337.701-.688 1.053-1.028a.516.516 0 0 1 .173-.104c1.362-.521 2.667-.371 3.918.341a4.213 4.213 0 0 1 1.446 1.357c.09.137.136.302.199.449l.091-.243c.245.749.288 1.435-.277 2.075l.721.528c-.014.123-.129.194-.266.219-.215.038-.433.058-.649.079a.735.735 0 0 0-.545.269c-.138.163-.349.269-.54.382-.16.094-.346.146-.5.246-.23.151-.451.323-.28.646l-.221.167c-.261-.012-.516.154-.726.367-.069.069-.024.25-.03.361-.2.095-.451.188-.668.328-.276.174-.276.237-.189.658-.031-.032-.059-.069-.096-.095-.036-.025-.08-.039-.119-.058-.013.036-.04.078-.03.108.053.171-.049.196-.175.204-.353.019-.392.043-.471.379-.06.249-.247.34-.458.418-.172.064-.35.105-.462.288-.086.142-.112.246.087.378-.418-.001-.651.259-.916.458-.189.146-.189.147-.002.348-.323-.06-.479.155-.658.331-.062.062-.114.137-.183.186-.127.088-.18.172 0 .298l-.068.04-.228-.144c-.669.661-1.335 1.383-2.29 1.723 2.757-2.949 5.716-5.695 8.534-8.581-.627.575-1.26 1.143-1.88 1.726-.735.692-1.462 1.393-2.187 2.096-.685.664-1.36 1.337-2.043 2.002-.657.639-1.318 1.273-1.978 1.909-.197.19-.399.377-.591.574-.089.089-.162.103-.291.062a40.099 40.099 0 0 0-1.684-.488c-.589-.159-1.175-.322-1.709-.634-.599-.346-1.048-.832-1.411-1.424.127-.097.251-.063.37-.007.151.073.296.16.447.23.162.074.307.052.439-.087.144-.146.104-.294 0-.415zm1.619.556l2.04.81c-.306.048-1.648-.504-2.04-.81zm4.312-3.413l.039-.073c.215.114.428.231.643.346l-.035.067-.647-.34zm-.106-1.625l.046-.07.775.529-.046.069c-.258-.176-.516-.353-.775-.528zm.959.65c.265-.068.404.125.583.233l-.023.049-.56-.282zm-.263-1.868c.653.269 1.155.762 1.731 1.146-.653-.267-1.203-.692-1.731-1.146zm6.723-4.735c-.134.106-.248.185-.344.279-.1.096-.183.11-.314.051-1.264-.557-2.581-.846-3.967-.681-.414.049-.82.156-1.228.242-.19.042-.303.16-.32.363-.004.048-.042.095-.09.131-.072-.228-.014-.432.111-.611.399-.564.966-.895 1.637-.921.694-.028 1.392.069 2.086.113.049.003.097.012.156-.01-.057-.017-.115-.041-.175-.05-.823-.128-1.651-.229-2.469-.393-.654-.128-1.246-.01-1.815.293-.125.065-.239.155-.356.233.137-.235.532-.57.913-.775.454-.244.94-.379 1.452-.377a9.936 9.936 0 0 1 3.488.656c.281.107.526.273.729.495l-.001.066-.795.069c.5.173 1.068.271 1.302.827zm-1.241-1.7c-.34-.068-.682-.125-1.018-.206-.768-.187-1.528-.406-2.299-.575-.755-.165-1.512-.163-2.242.143-.101.042-.198.089-.301.122.472-.46 1.052-.664 1.695-.654.458.005.922.047 1.372.135.683.134 1.361.304 2.029.494.238.067.445.241.662.37.049.029.084.08.126.121a1.184 1.184 0 0 1-.024.05zM27.736 35.12c-.327.494-.829.796-1.271 1.165.334-.487.83-.795 1.271-1.165zm23.09 31.529c-.087.042-.175.082-.262.122v-4.17l.262.004v4.044zm.52-.257l-.268.133V63l.257-.003c.02 1.13.013 2.263.011 3.395zm.587-.302l-.255.134v-2.667l.255.003v2.53zm.459-.245c-.072.04-.145.078-.217.117v-1.989h.223c-.001.624-.011 1.248-.006 1.872zm.602-.337l-.29.162v-1.259l.29-.003v1.1zm.537-.318l-.211.125v-.298l.211.006v.167zm1.947-6.642c-.231 1.763-.48 3.523-.71 5.177-1.18-.937-2.348-1.837-3.477-2.784-.176-.147-.287-.528-.24-.764.361-1.836.769-3.663 1.155-5.463l2.665.828v1.416c-.002.442-.022.872.468 1.128.102.051.16.311.139.462zm-.516-5.067l.304-5.196.25.02c.31 1.765-.087 3.474-.554 5.176zm.714 2.68c.102-.777.202-1.555.303-2.332.072.01.145.021.218.03l-.345 2.326a5.308 5.308 0 0 0-.176-.024zm.875-2.68l.195.024c-.137 1.085-.272 2.17-.407 3.255l-.189-.022.401-3.257zm.774-1.608c.077.701.208 1.328.204 1.955a59.826 59.826 0 0 1-.154 3.834c-.042.593-.481.775-.891.426-.084-.072-.164-.229-.147-.331.314-1.932.645-3.861.988-5.884zm4.424 6.401a33.741 33.741 0 0 1-5.318 4.969c.212-1.043.295-2.113.308-3.198.004-.455.048-.91.08-1.495h4.543c-.339-2.539-.659-4.937-.981-7.334-.009-.066-.078-.145-.059-.193.644-1.606-.363-2.964-.756-4.378-.261-.941-.331-1.905-.176-2.734.603-3.258 1.421-6.476 2.17-9.758l1.721-.486c-.473 8.215-.952 16.4-1.532 24.607zm4.569-6.835a33.503 33.503 0 0 1-3.383 5.377c.157-2.053.316-4.106.472-6.16.341-4.504.677-9.008 1.016-13.512.094-1.257.214-2.514.279-3.773.044-.865.409-1.451 1.234-1.749.165-.059.305-.184.582-.357l-.2 20.174zm-.593-20.268l-.28-.161.824-1.445.317.165-.861 1.441zm1.026-1.707l.808-1.551.236.105-.737 1.593-.307-.147zm.266 20.502l.043-5.778c.032-4.083.102-8.166.087-12.249-.003-1.073.129-1.988 1.193-2.629.026 5.636.051 11.273.078 16.909a33.3 33.3 0 0 1-1.401 3.747zm1.95-21.388c.601 2.508.92 5.124.92 7.814 0 2.69-.319 5.306-.92 7.814V28.578z"/></svg>